<svg xmlns="http://www.w3.org/2000/svg" viewBox="0 0 64 64" width="64" height="64">
  <defs>
    <linearGradient id="g" x1="0" y1="0" x2="1" y2="1">
      <stop offset="0" stop-color="#e5ff00"/>
      <stop offset="1" stop-color="#c8e000"/>
    </linearGradient>
  </defs>
  <rect x="2" y="2" width="60" height="60" rx="16" fill="#0b0b10"/>
  <rect x="2" y="2" width="60" height="60" rx="16" fill="none" stroke="url(#g)" stroke-width="2.5"/>
  <path d="M22 16h13.2c6.1 0 10 3.2 10 8.2 0 3.4-1.9 5.9-4.9 7 3.7 0.9 6 3.6 6 7.5 0 5.6-4.3 9.1-11 9.1H22V16zm7.2 12.5h5c2.4 0 3.9-1.2 3.9-3.2s-1.5-3.1-3.9-3.1h-5v6.3zm0 13.4h5.6c2.6 0 4.2-1.3 4.2-3.4 0-2.2-1.6-3.4-4.2-3.4h-5.6v6.8z" fill="url(#g)"/>
</svg>
